<svg width="20" height="21" viewBox="0 0 20 21" fill="none" xmlns="http://www.w3.org/2000/svg">
<path d="M18.654 10.1295L10.2299 18.5537C9.19786 19.5857 7.79813 20.1655 6.33863 20.1655C4.87913 20.1655 3.4794 19.5857 2.44738 18.5537C1.41536 17.5216 0.835571 16.1219 0.835571 14.6624C0.835571 13.2029 1.41536 11.8032 2.44738 10.7712L10.8715 2.347C11.5596 1.65898 12.4927 1.27246 13.4657 1.27246C14.4387 1.27246 15.3719 1.65898 16.0599 2.347C16.7479 3.03502 17.1344 3.96816 17.1344 4.94117C17.1344 5.91417 16.7479 6.84732 16.0599 7.53533L7.62655 15.9595C7.28254 16.3035 6.81596 16.4968 6.32946 16.4968C5.84296 16.4968 5.37639 16.3035 5.03238 15.9595C4.68837 15.6155 4.49511 15.1489 4.49511 14.6624C4.49511 14.1759 4.68837 13.7093 5.03238 13.3653L12.8149 5.592" stroke="#CBC9D0" stroke-width="1.08772" stroke-linecap="round" stroke-linejoin="round"/>
</svg>
