<svg width="14" height="9" viewBox="0 0 14 9" fill="none" xmlns="http://www.w3.org/2000/svg">
<path fill-rule="evenodd" clip-rule="evenodd" d="M10.7608 1.88448C10.9732 1.67209 10.9732 1.32774 10.7608 1.11535C10.5484 0.902957 10.204 0.902957 9.99165 1.11535L3.95955 7.14745L1.42745 4.61535C1.21506 4.40296 0.870707 4.40296 0.658316 4.61535C0.445926 4.82774 0.445926 5.17209 0.658316 5.38448L3.57498 8.30115C3.67698 8.40314 3.81531 8.46044 3.95955 8.46044C4.10379 8.46044 4.24212 8.40314 4.34412 8.30115L5.52908 7.11618L6.55156 8.2762C6.65086 8.38886 6.79233 8.45545 6.94244 8.46017C7.09254 8.4649 7.23792 8.40734 7.34412 8.30115L13.7608 1.88448C13.9732 1.67209 13.9732 1.32774 13.7608 1.11535C13.5484 0.902957 13.204 0.902957 12.9916 1.11535L6.98455 7.12245L6.29974 6.34552L10.7608 1.88448Z" fill="#1C2FBA"/>
</svg>
