<svg width="86" height="86" viewBox="0 0 86 86" fill="none" xmlns="http://www.w3.org/2000/svg">
<path d="M78.5217 0H7.47826C3.34813 0 0 3.34813 0 7.47826V78.5217C0 82.6519 3.34813 86 7.47826 86H78.5217C82.6519 86 86 82.6519 86 78.5217V7.47826C86 3.34813 82.6519 0 78.5217 0Z" fill="#1C2FBA"/>
<path fill-rule="evenodd" clip-rule="evenodd" d="M88.8522 38.5238C89.6404 43.5118 89.9037 49.0903 89.6404 55.2596C89.5096 56.8347 88.6548 57.6223 87.0784 57.6223H26.1779C25.3895 57.6223 25.1267 57.9504 25.3895 58.6067C25.7837 61.232 26.5064 63.8571 27.5575 66.4824C30.9738 73.833 37.9375 77.5085 48.449 77.5085C56.8581 77.3769 63.4934 73.9642 68.355 67.2699C68.8805 66.4824 69.4718 66.0886 70.1287 66.0886C70.5229 66.0886 70.9828 66.3511 71.5084 66.8761L85.6986 80.8557C86.356 81.5116 86.6843 82.1024 86.6843 82.6273C86.6843 82.8898 86.4218 83.4148 85.8961 84.2023C81.5602 89.5844 75.9754 93.7849 69.1433 96.8039C62.3109 99.6912 54.8215 101.135 46.6752 101.135C35.3754 101.135 25.7837 98.5755 17.9001 93.4566C10.148 88.337 4.56378 81.1833 1.14757 71.9953C-1.61168 65.4323 -2.9913 56.8347 -2.9913 46.2026C-2.9913 38.9832 -2.00585 32.6171 -0.0349653 27.1042C2.98707 17.7847 8.24277 10.3685 15.7322 4.85552C23.353 -0.657416 32.3534 -3.41388 42.7334 -3.41388C55.8726 -3.41388 66.3841 0.392673 74.2677 8.00581C82.2826 15.6189 87.1442 25.7916 88.8522 38.5238ZM25.6884 18.9778C24.7506 21.4686 24.2817 24.3828 24.2817 27.7204C24.2817 32.6521 25.2935 36.5625 27.3173 39.4518C29.3903 42.3909 32.2531 43.8604 35.9057 43.8604C39.0153 43.8604 41.3845 42.8392 43.0134 40.7968C44.6422 38.7544 45.9749 35.9648 47.0114 32.4279C47.2583 31.6308 47.4557 30.8836 47.6038 30.1863C47.8012 29.4888 47.9739 28.8661 48.122 28.3182C48.6649 25.927 49.1833 24.2084 49.6768 23.1623C50.1704 22.166 50.9108 21.6678 51.898 21.6678C52.9345 21.6678 53.749 22.191 54.3412 23.2371C54.9336 24.2831 55.2297 25.6282 55.2297 27.2721C55.2297 29.1152 54.8595 30.5848 54.1191 31.6806C53.3787 32.8264 52.4656 33.3993 51.3797 33.3993C51.1329 33.3993 50.9108 33.474 50.7134 33.6234C50.5653 33.8227 50.4913 34.0469 50.4913 34.2959V42.2912C50.4913 42.5403 50.5653 42.7396 50.7134 42.8891C50.9108 43.0883 51.1329 43.1879 51.3797 43.1879C53.6996 43.1879 55.7726 42.5154 57.5989 41.1704C59.4252 39.8752 60.8319 38.0321 61.8191 35.641C62.8557 33.2498 63.3739 30.4602 63.3739 27.2721C63.3739 22.5397 62.288 18.7288 60.1162 15.8395C57.9938 13.0001 55.1063 11.5803 51.4537 11.5803C48.4922 11.5803 46.2217 12.5269 44.6422 14.4198C43.0627 16.3127 41.73 18.8533 40.6441 22.0415C40.1012 23.3865 39.5336 25.2297 38.9413 27.571C38.4477 29.6133 37.9788 31.0829 37.5345 31.9795C37.0903 32.8763 36.424 33.3246 35.5355 33.3246C34.5483 33.3246 33.7092 32.8015 33.0182 31.7554C32.3765 30.7093 32.0557 29.3393 32.0557 27.6457C32.0557 25.8025 32.4259 24.2582 33.1663 23.0129C33.956 21.8173 34.8939 21.2195 35.9797 21.2195H36.0537C36.3006 21.2195 36.498 21.1199 36.6461 20.9206C36.8435 20.7712 36.9422 20.572 36.9422 20.3229V12.0287C36.9422 11.7796 36.8435 11.5554 36.6461 11.3562C36.498 11.2067 36.3006 11.132 36.0537 11.132H35.3134C33.191 11.132 31.2906 11.8045 29.6124 13.1495C27.9342 14.5444 26.6262 16.4871 25.6884 18.9778Z" fill="#61D4F6"/>
</svg>
