<svg width="99" height="99" viewBox="0 0 99 99" fill="none" xmlns="http://www.w3.org/2000/svg">
<path d="M79.9615 0H19.0385C8.52381 0 0 8.52381 0 19.0385V79.9615C0 90.4762 8.52381 99 19.0385 99H79.9615C90.4762 99 99 90.4762 99 79.9615V19.0385C99 8.52381 90.4762 0 79.9615 0Z" fill="#1C2FBA"/>
<path d="M63.8 31.9C52.8769 31.9 44 40.7769 44 51.7C44 62.6232 52.8769 71.5 63.8 71.5C74.7227 71.5 83.6 62.6232 83.6 51.7C83.6 40.7769 74.7227 31.9 63.8 31.9Z" fill="#61D4F6"/>
<path d="M24.2 38.5C16.907 38.5 11 44.4072 11 51.7C11 58.9928 16.907 64.9 24.2 64.9C31.493 64.9 37.4 58.9928 37.4 51.7C37.4 44.4072 31.493 38.5 24.2 38.5ZM24.2 58.2998C20.57 58.2998 17.6 55.3298 17.6 51.7C17.6 48.0702 20.57 45.1002 24.2 45.1002C27.83 45.1002 30.8 48.0702 30.8 51.7C30.8 55.3298 27.83 58.2998 24.2 58.2998Z" fill="#F8D5E8"/>
</svg>
