<svg width="15" height="15" viewBox="0 0 15 15" fill="none" xmlns="http://www.w3.org/2000/svg">
<path d="M7.49974 5.00001V7.50001M7.49974 10H7.50599M6.43099 1.78751L1.13724 10.625C1.02809 10.814 0.970343 11.0283 0.969731 11.2466C0.96912 11.4648 1.02567 11.6795 1.13375 11.8691C1.24184 12.0587 1.39769 12.2167 1.58581 12.3274C1.77392 12.4381 1.98774 12.4976 2.20599 12.5H12.7935C13.0117 12.4976 13.2256 12.4381 13.4137 12.3274C13.6018 12.2167 13.7576 12.0587 13.8657 11.8691C13.9738 11.6795 14.0304 11.4648 14.0297 11.2466C14.0291 11.0283 13.9714 10.814 13.8622 10.625L8.56849 1.78751C8.45707 1.60382 8.30019 1.45196 8.11299 1.34656C7.92578 1.24116 7.71457 1.18579 7.49974 1.18579C7.2849 1.18579 7.0737 1.24116 6.88649 1.34656C6.69929 1.45196 6.54241 1.60382 6.43099 1.78751Z" stroke="#EE2A64" stroke-width="1.25" stroke-linecap="round" stroke-linejoin="round"/>
</svg>
