<svg width="23" height="23" viewBox="0 0 23 23" fill="none" xmlns="http://www.w3.org/2000/svg">
<path d="M21.4999 16.4201V19.4201C21.5011 19.6986 21.444 19.9743 21.3324 20.2294C21.2209 20.4846 21.0572 20.7137 20.852 20.902C20.6468 21.0902 20.4045 21.2336 20.1407 21.3228C19.8769 21.412 19.5973 21.4452 19.3199 21.4201C16.2428 21.0857 13.2869 20.0342 10.6899 18.3501C8.27376 16.8148 6.22527 14.7663 4.68993 12.3501C2.99991 9.7413 1.94818 6.77109 1.61993 3.6801C1.59494 3.40356 1.62781 3.12486 1.71643 2.86172C1.80506 2.59859 1.9475 2.35679 2.1347 2.15172C2.32189 1.94665 2.54974 1.78281 2.80372 1.67062C3.05771 1.55843 3.33227 1.50036 3.60993 1.5001H6.60993C7.09524 1.49532 7.56572 1.66718 7.93369 1.98363C8.30166 2.30008 8.54201 2.73954 8.60993 3.2201C8.73656 4.18016 8.97138 5.12282 9.30993 6.0301C9.44448 6.38802 9.4736 6.77701 9.39384 7.15098C9.31408 7.52494 9.1288 7.86821 8.85993 8.1401L7.58993 9.4101C9.01349 11.9136 11.0864 13.9865 13.5899 15.4101L14.8599 14.1401C15.1318 13.8712 15.4751 13.6859 15.8491 13.6062C16.223 13.5264 16.612 13.5556 16.9699 13.6901C17.8772 14.0286 18.8199 14.2635 19.7799 14.3901C20.2657 14.4586 20.7093 14.7033 21.0265 15.0776C21.3436 15.4519 21.5121 15.9297 21.4999 16.4201Z" stroke="white" stroke-width="2" stroke-linecap="round" stroke-linejoin="round"/>
</svg>
