<svg width="34" height="34" viewBox="0 0 34 34" fill="none" xmlns="http://www.w3.org/2000/svg">
<rect width="34" height="34" rx="17" fill="#1C2FBA"/>
<g clip-path="url(#clip0_2196_6689)">
<path d="M11.4341 19.6077L10.2764 18.4499C10.1684 18.3429 10.0841 18.2145 10.0287 18.0729C9.97323 17.9314 9.94798 17.7799 9.95452 17.628C9.96106 17.4761 9.99924 17.3273 10.0666 17.1911C10.134 17.0548 10.2291 16.9342 10.3458 16.8368C11.6624 15.7783 13.2089 15.0434 14.861 14.6911C16.386 14.3512 17.9671 14.3512 19.4921 14.6911C21.151 15.0457 22.7032 15.786 24.0227 16.8522C24.1391 16.9493 24.234 17.0695 24.3013 17.2053C24.3686 17.341 24.407 17.4893 24.4139 17.6407C24.4208 17.7921 24.3961 17.9432 24.3414 18.0846C24.2866 18.2259 24.2031 18.3542 24.096 18.4615L22.9383 19.6193C22.7528 19.8084 22.505 19.9236 22.2408 19.9435C21.9767 19.9634 21.7143 19.8865 21.5027 19.7273C21.0833 19.4057 20.6289 19.1325 20.1481 18.913C19.9581 18.8268 19.7967 18.6879 19.6832 18.5128C19.5696 18.3377 19.5087 18.1338 19.5075 17.9251V16.9448C17.992 16.5281 16.392 16.5281 14.8765 16.9448V17.9251C14.8753 18.1338 14.8144 18.3377 14.7008 18.5128C14.5873 18.6879 14.4259 18.8268 14.2359 18.913C13.7551 19.1325 13.3007 19.4057 12.8813 19.7273C12.6674 19.8883 12.4018 19.9651 12.1349 19.943C11.8681 19.921 11.6187 19.8016 11.4341 19.6077Z" stroke="white" stroke-linecap="round" stroke-linejoin="round"/>
</g>
<defs>
<clipPath id="clip0_2196_6689">
<rect width="16" height="16" fill="white" transform="translate(9.5 10)"/>
</clipPath>
</defs>
</svg>
