<svg width="24" height="24" viewBox="0 0 24 24" fill="none" xmlns="http://www.w3.org/2000/svg">
<path d="M1.00049 1.00009L23.0005 23.0001M15.0005 9.34009V4.00009C15.0012 3.25612 14.7255 2.53841 14.2269 1.98629C13.7282 1.43417 13.0422 1.08703 12.302 1.01227C11.5618 0.937497 10.8202 1.14043 10.2212 1.58168C9.62221 2.02293 9.20854 2.671 9.06049 3.40009M17.0005 16.9501C16.0243 17.9465 14.7726 18.6285 13.4061 18.9087C12.0396 19.1888 10.6205 19.0543 9.33098 18.5224C8.04145 17.9904 6.94025 17.0854 6.16866 15.9232C5.39707 14.7611 4.99028 13.395 5.00049 12.0001V10.0001M19.0005 10.0001V12.0001C19.0001 12.4125 18.9633 12.8241 18.8905 13.2301M12.0005 19.0001V23.0001M8.00049 23.0001H16.0005M9.00049 9.00009V12.0001C9.00101 12.5931 9.17724 13.1726 9.50692 13.6654C9.8366 14.1583 10.3049 14.5424 10.8528 14.7692C11.4006 14.9961 12.0034 15.0555 12.585 14.94C13.1666 14.8244 13.7009 14.5391 14.1205 14.1201L9.00049 9.00009Z" stroke="#1C2FBA" stroke-width="1.08772" stroke-linecap="round" stroke-linejoin="round"/>
</svg>
