<svg width="25" height="25" viewBox="0 0 25 25" fill="none" xmlns="http://www.w3.org/2000/svg">
<path d="M5.69 13.31C4.00586 10.713 2.95436 7.75717 2.62 4.68C2.59501 4.40347 2.62787 4.12476 2.7165 3.86162C2.80513 3.59849 2.94757 3.35669 3.13477 3.15162C3.32196 2.94655 3.5498 2.78271 3.80379 2.67052C4.05778 2.55833 4.33234 2.50026 4.61 2.5H7.61C8.09531 2.49522 8.56579 2.66708 8.93376 2.98353C9.30173 3.29999 9.54208 3.73945 9.61 4.22C9.73662 5.18007 9.97145 6.12273 10.31 7.03C10.4445 7.38792 10.4737 7.77691 10.3939 8.15088C10.3142 8.52485 10.1289 8.86811 9.86 9.14L8.59 10.41M23.5 1.5L1.5 23.5M11.18 13.81C12.1949 14.8257 13.3418 15.7003 14.59 16.41L15.86 15.14C16.1319 14.8711 16.4752 14.6858 16.8491 14.6061C17.2231 14.5263 17.6121 14.5555 17.97 14.69C18.8773 15.0286 19.8199 15.2634 20.78 15.39C21.2606 15.4579 21.7 15.6983 22.0165 16.0662C22.3329 16.4342 22.5048 16.9047 22.5 17.39V20.39C22.5011 20.6685 22.4441 20.9442 22.3325 21.1993C22.2209 21.4545 22.0573 21.6836 21.8521 21.8719C21.6469 22.0601 21.4046 22.2035 21.1407 22.2927C20.8769 22.3819 20.5974 22.4151 20.32 22.39C17.2428 22.0556 14.287 21.0041 11.69 19.32C10.4853 18.5551 9.36853 17.6596 8.36 16.65L11.18 13.81Z" stroke="#1C2FBA" stroke-width="2" stroke-linecap="round" stroke-linejoin="round"/>
</svg>
