<svg width="25" height="21" viewBox="0 0 25 21" fill="none" xmlns="http://www.w3.org/2000/svg">
    <path d="M18.75 0.578125V20.3828C22.0312 18.3516 24.2188 14.6016 24.2188 10.4609C24.2188 6.32031 22.0312 2.64844 18.75 0.578125ZM6.25 0.578125C2.96875 2.64844 0.78125 6.39844 0.78125 10.5C0.78125 14.6016 2.96875 18.3516 6.25 20.4219V0.578125ZM16.7578 10.3438C16.6016 10.2656 16.5625 10.1094 16.6016 10.0312L16.9922 8.625L15.625 8.89844C15.5859 8.89844 15.4297 8.89844 15.3906 8.625L15.2734 8.15625L14.3359 9.25C14.3359 9.25 13.7109 9.91406 13.9062 8.89844L14.2969 6.75L13.5547 7.14062C13.5156 7.14062 13.3594 7.17969 13.1641 6.78906L12.5 5.42188L11.7969 6.71094C11.6016 7.10156 11.4453 7.0625 11.4062 7.0625L10.6641 6.67188L11.0547 8.82031C11.25 9.83594 10.625 9.17188 10.625 9.17188L9.6875 8.07812L9.57031 8.54688C9.49219 8.82031 9.375 8.82031 9.33594 8.82031L7.96875 8.54688L8.35938 9.95312C8.35938 10.0703 8.35938 10.1875 8.20312 10.2656L7.8125 10.5C7.8125 10.5 9.375 11.75 9.88281 12.1797C10 12.2578 10.2344 12.4922 10.1562 12.7656L9.96094 13.3125L12.1094 13C12.2266 13 12.4609 13 12.4219 13.3516L12.3047 15.5781H12.6953L12.5781 13.3516C12.5781 13 12.8125 13 12.8906 13L15.0391 13.3125L14.8438 12.7656C14.7656 12.4922 15 12.2578 15.1172 12.1797C15.625 11.75 17.1875 10.5 17.1875 10.5L16.7578 10.3438Z" fill="#ED4C5C"/>
</svg>
