<svg width="17" height="14" viewBox="0 0 17 14" fill="none" xmlns="http://www.w3.org/2000/svg">
<path d="M11.1667 13V11.6667C11.1667 10.9594 10.8857 10.2811 10.3856 9.78105C9.88552 9.28095 9.20724 9 8.5 9H3.83333C3.12609 9 2.44781 9.28095 1.94772 9.78105C1.44762 10.2811 1.16667 10.9594 1.16667 11.6667V13M13.8333 4.33333V8.33333M15.8333 6.33333H11.8333M8.83333 3.66667C8.83333 5.13943 7.63943 6.33333 6.16667 6.33333C4.69391 6.33333 3.5 5.13943 3.5 3.66667C3.5 2.19391 4.69391 1 6.16667 1C7.63943 1 8.83333 2.19391 8.83333 3.66667Z" stroke="#1C2FBA" stroke-linecap="round" stroke-linejoin="round"/>
</svg>
