<svg width="24" height="24" viewBox="0 0 24 24" fill="none" xmlns="http://www.w3.org/2000/svg">
<g clip-path="url(#clip0_2332_3603)">
<path d="M0.712524 12.0002C0.712524 16.9127 3.86252 21.0752 8.21252 22.6127V1.3877C3.86252 2.9252 0.712524 7.08769 0.712524 12.0002Z" fill="#1E50A0"/>
<path d="M23.2125 12.0002C23.2125 7.08769 20.1 2.9252 15.7125 1.3877V22.6127C20.1 21.0752 23.2125 16.9127 23.2125 12.0002Z" fill="#D22F27"/>
<path d="M8.21252 22.6125C9.37502 23.025 10.65 23.25 11.9625 23.25C13.275 23.25 14.55 23.025 15.7125 22.6125V1.3875C14.55 0.975 13.3125 0.75 11.9625 0.75C10.6125 0.75 9.37502 0.975 8.21252 1.3875V22.6125Z" fill="white"/>
</g>
<defs>
<clipPath id="clip0_2332_3603">
<rect width="24" height="24" fill="white"/>
</clipPath>
</defs>
</svg>
