<svg width="24" height="23" viewBox="0 0 24 23" fill="none" xmlns="http://www.w3.org/2000/svg">
<path d="M-7 0H30.5258V22.9997H-7V0Z" fill="#1E50A0"/>
<path d="M14.1841 7.17591V9.07883H20.3462L30.526 2.83925V0H25.8934L14.1841 7.17591Z" fill="white"/>
<path d="M30.526 0H28.2097L14.1841 8.59644V9.07883H16.2916L30.526 0.35468V0Z" fill="#D22F27"/>
<path d="M25.894 22.9997H30.526V20.1599L20.3468 13.9209H14.1841V15.8232L25.894 22.9997Z" fill="white"/>
<path d="M30.5258 22.9997V21.5792L18.0303 13.9209H15.1329L29.9459 22.9997H30.5258Z" fill="#D22F27"/>
<path d="M9.34189 15.8238V13.9209H3.17979L-7 20.1605V22.9997H-2.36738L9.34189 15.8238Z" fill="white"/>
<path d="M-7 22.9997H-4.68369L9.34189 14.4033V13.9209H7.23439L-7 22.645V22.9997Z" fill="#D22F27"/>
<path d="M-2.36798 0H-7V2.83986L3.17918 9.07883H9.34189V7.17651L-2.36798 0Z" fill="white"/>
<path d="M-7 0V1.42053L5.4961 9.07883H8.39285L-6.42017 0H-7Z" fill="#D22F27"/>
<path d="M-7 8.47412H30.5258V14.5267H-7V8.47412Z" fill="white"/>
<path d="M8.73694 0H14.7895V22.9997H8.73694V0Z" fill="white"/>
<path d="M-7 9.68408H30.5258V13.3156H-7V9.68408Z" fill="#D22F27"/>
<path d="M9.94727 0H13.5788V22.9997H9.94727V0Z" fill="#D22F27"/>
</svg>
