<svg width="16" height="16" viewBox="0 0 16 16" fill="none" xmlns="http://www.w3.org/2000/svg">
<path d="M11.6664 4.3335H11.6731M4.66643 1.3335H11.3331C13.174 1.3335 14.6664 2.82588 14.6664 4.66683V11.3335C14.6664 13.1744 13.174 14.6668 11.3331 14.6668H4.66643C2.82548 14.6668 1.33309 13.1744 1.33309 11.3335V4.66683C1.33309 2.82588 2.82548 1.3335 4.66643 1.3335ZM10.6664 7.58016C10.7487 8.13499 10.6539 8.70164 10.3956 9.19951C10.1373 9.69737 9.72853 10.1011 9.22751 10.3533C8.7265 10.6055 8.15873 10.6932 7.60495 10.6041C7.05118 10.515 6.5396 10.2536 6.14299 9.85694C5.74637 9.46032 5.48492 8.94875 5.39581 8.39497C5.3067 7.8412 5.39447 7.27343 5.64665 6.77241C5.89882 6.2714 6.30255 5.86266 6.80042 5.60432C7.29828 5.34599 7.86493 5.25122 8.41976 5.3335C8.98571 5.41742 9.50966 5.68114 9.91422 6.0857C10.3188 6.49026 10.5825 7.01422 10.6664 7.58016Z" stroke="#1C2FBA" stroke-width="1.08772" stroke-linecap="round" stroke-linejoin="round"/>
</svg>
