<svg width="29" height="29" viewBox="0 0 29 29" fill="none" xmlns="http://www.w3.org/2000/svg">
<mask id="mask0_1103_1117" style="mask-type:alpha" maskUnits="userSpaceOnUse" x="0" y="0" width="29" height="29">
<path d="M26.04 0H2.48C1.11033 0 0 1.11033 0 2.48V26.04C0 27.4097 1.11033 28.52 2.48 28.52H26.04C27.4097 28.52 28.52 27.4097 28.52 26.04V2.48C28.52 1.11033 27.4097 0 26.04 0Z" fill="#1C2FBA"/>
</mask>
<g mask="url(#mask0_1103_1117)">
<path d="M26.04 6.10352e-05H2.48C1.11033 6.10352e-05 0 1.11039 0 2.48006V26.0401C0 27.4097 1.11033 28.5201 2.48 28.5201H26.04C27.4097 28.5201 28.52 27.4097 28.52 26.0401V2.48006C28.52 1.11039 27.4097 6.10352e-05 26.04 6.10352e-05Z" fill="#1C2FBA"/>
<path fill-rule="evenodd" clip-rule="evenodd" d="M29.4659 12.7755C29.7273 14.4296 29.8146 16.2796 29.7273 18.3255C29.6839 18.8479 29.4005 19.109 28.8777 19.109H8.68137C8.41993 19.109 8.33278 19.2179 8.41993 19.4355C8.55065 20.3061 8.79032 21.1767 9.13891 22.0473C10.2718 24.485 12.5812 25.7038 16.0671 25.7038C18.8558 25.6602 21.0562 24.5285 22.6685 22.3085C22.8428 22.0473 23.0388 21.9167 23.2567 21.9167C23.3874 21.9167 23.5399 22.0038 23.7142 22.1779L28.4201 26.8139C28.6381 27.0314 28.747 27.2273 28.747 27.4014C28.747 27.4885 28.6599 27.6626 28.4856 27.9237C27.0477 29.7086 25.1956 31.1016 22.9299 32.1027C20.6641 33.0603 18.1804 33.5392 15.4789 33.5392C11.7315 33.5392 8.55065 32.6903 5.93623 30.9927C3.36542 29.2949 1.51353 26.9225 0.380623 23.8755C-0.534421 21.699 -0.991943 18.8478 -0.991943 15.3219C-0.991943 12.9278 -0.665141 10.8166 -0.0115395 8.98837C0.990651 5.89777 2.73359 3.43836 5.21728 1.6101C7.74455 -0.218143 10.7293 -1.13226 14.1716 -1.13226C18.529 -1.13226 22.0149 0.130096 24.6293 2.65483C27.2872 5.17954 28.8995 8.55309 29.4659 12.7755ZM8.51905 6.29346C8.20804 7.11947 8.05254 8.08588 8.05254 9.19273C8.05254 10.8282 8.38809 12.125 9.05922 13.0832C9.7467 14.0579 10.6961 14.5452 11.9074 14.5452C12.9386 14.5452 13.7243 14.2065 14.2645 13.5292C14.8047 12.8519 15.2466 11.9268 15.5904 10.7539C15.6722 10.4895 15.7377 10.2417 15.7868 10.0105C15.8523 9.7792 15.9096 9.57269 15.9587 9.39098C16.1387 8.598 16.3106 8.02807 16.4743 7.68114C16.638 7.35076 16.8835 7.18554 17.2109 7.18554C17.5546 7.18554 17.8247 7.35901 18.0211 7.70594C18.2176 8.05284 18.3158 8.4989 18.3158 9.04405C18.3158 9.6553 18.193 10.1426 17.9475 10.5061C17.7019 10.886 17.3991 11.076 17.039 11.076C16.9572 11.076 16.8835 11.1008 16.818 11.1503C16.7689 11.2164 16.7444 11.2908 16.7444 11.3734V14.0248C16.7444 14.1074 16.7689 14.1735 16.818 14.2231C16.8835 14.2892 16.9572 14.3222 17.039 14.3222C17.8083 14.3222 18.4958 14.0992 19.1015 13.6531C19.7071 13.2236 20.1736 12.6124 20.501 11.8194C20.8448 11.0264 21.0166 10.1013 21.0166 9.04405C21.0166 7.47466 20.6565 6.21087 19.9363 5.2527C19.2324 4.31107 18.2749 3.84024 17.0635 3.84024C16.0814 3.84024 15.3285 4.15414 14.8047 4.7819C14.2809 5.40964 13.8389 6.25217 13.4788 7.30944C13.2987 7.75549 13.1105 8.36674 12.9141 9.14318C12.7504 9.82049 12.5949 10.3078 12.4475 10.6052C12.3002 10.9026 12.0793 11.0512 11.7846 11.0512C11.4572 11.0512 11.179 10.8778 10.9498 10.5309C10.737 10.1839 10.6306 9.72962 10.6306 9.16795C10.6306 8.55671 10.7534 8.04459 10.9989 7.63159C11.2608 7.23511 11.5718 7.03686 11.9319 7.03686H11.9565C12.0383 7.03686 12.1038 7.00383 12.1529 6.93774C12.2184 6.88819 12.2511 6.82212 12.2511 6.73951V3.98892C12.2511 3.90633 12.2184 3.83198 12.1529 3.76592C12.1038 3.71634 12.0383 3.69157 11.9565 3.69157H11.711C11.0071 3.69157 10.3769 3.91459 9.82036 4.36062C9.26382 4.82319 8.83005 5.46747 8.51905 6.29346Z" fill="#61D4F6"/>
</g>
</svg>
