<svg width="40" height="40" viewBox="0 0 40 40" fill="none" xmlns="http://www.w3.org/2000/svg">
<circle cx="18" cy="22" r="18" fill="#F6F5FA"/>
<path d="M28 16C28 14.9 27.1 14 26 14H10C8.9 14 8 14.9 8 16M28 16V28C28 29.1 27.1 30 26 30H10C8.9 30 8 29.1 8 28V16M28 16L18 23L8 16" stroke="#1C2FBA" stroke-width="2" stroke-linecap="round" stroke-linejoin="round"/>
<circle cx="31" cy="10" r="9" fill="#61D4F6"/>
<path d="M30.04 5.636C30.088 5.612 30.14 5.6 30.196 5.6H31.144C31.224 5.6 31.264 5.64 31.264 5.72V13.88C31.264 13.96 31.224 14 31.144 14H30.232C30.152 14 30.112 13.96 30.112 13.88V6.836C30.112 6.82 30.104 6.808 30.088 6.8C30.08 6.792 30.068 6.792 30.052 6.8L28.792 7.232C28.776 7.24 28.756 7.244 28.732 7.244C28.684 7.244 28.656 7.212 28.648 7.148L28.6 6.464C28.6 6.384 28.624 6.336 28.672 6.32L30.04 5.636Z" fill="#1C2FBA"/>
</svg>
