<svg width="22" height="22" viewBox="0 0 22 22" fill="none" xmlns="http://www.w3.org/2000/svg">
<path d="M16.0417 5.95801H16.0509M6.41671 1.83301H15.5834C18.1147 1.83301 20.1667 3.88504 20.1667 6.41634V15.583C20.1667 18.1143 18.1147 20.1663 15.5834 20.1663H6.41671C3.8854 20.1663 1.83337 18.1143 1.83337 15.583V6.41634C1.83337 3.88504 3.8854 1.83301 6.41671 1.83301ZM14.6667 10.4222C14.7798 11.1851 14.6495 11.9642 14.2943 12.6488C13.9391 13.3333 13.3771 13.8885 12.6882 14.2352C11.9993 14.5819 11.2186 14.7026 10.4572 14.5801C9.69574 14.4576 8.99232 14.0981 8.44698 13.5527C7.90163 13.0074 7.54213 12.304 7.4196 11.5425C7.29708 10.7811 7.41777 10.0004 7.76451 9.31152C8.11125 8.62262 8.66638 8.0606 9.35094 7.7054C10.0355 7.35019 10.8146 7.21988 11.5775 7.33301C12.3557 7.4484 13.0762 7.81102 13.6324 8.36729C14.1887 8.92356 14.5513 9.64399 14.6667 10.4222Z" stroke="#E0E2F2" stroke-width="2" stroke-linecap="round" stroke-linejoin="round"/>
</svg>
