<svg width="22" height="17" viewBox="0 0 22 17" fill="none" xmlns="http://www.w3.org/2000/svg">
<path d="M20.6617 3.88533C20.5528 3.45028 20.331 3.05168 20.0188 2.72978C19.7065 2.40788 19.3149 2.17408 18.8833 2.05199C17.3067 1.66699 11 1.66699 11 1.66699C11 1.66699 4.69333 1.66699 3.11666 2.08866C2.68514 2.21074 2.29347 2.44455 1.98123 2.76645C1.66898 3.08835 1.44722 3.48695 1.33833 3.92199C1.04978 5.52208 0.908628 7.14528 0.916662 8.77116C0.906376 10.4093 1.04753 12.0449 1.33833 13.657C1.45837 14.0785 1.68511 14.462 1.99663 14.7703C2.30814 15.0786 2.69391 15.3013 3.11666 15.417C4.69333 15.8387 11 15.8387 11 15.8387C11 15.8387 17.3067 15.8387 18.8833 15.417C19.3149 15.2949 19.7065 15.0611 20.0188 14.7392C20.331 14.4173 20.5528 14.0187 20.6617 13.5837C20.948 11.9956 21.0891 10.3848 21.0833 8.77116C21.0936 7.13303 20.9525 5.49747 20.6617 3.88533Z" stroke="#E0E2F2" stroke-width="2" stroke-linecap="round" stroke-linejoin="round"/>
<path d="M8.93749 11.7687L14.2083 8.77116L8.93749 5.77366V11.7687Z" stroke="#E0E2F2" stroke-width="2" stroke-linecap="round" stroke-linejoin="round"/>
</svg>
