<svg width="18" height="18" viewBox="0 0 18 18" fill="none" xmlns="http://www.w3.org/2000/svg">
<path d="M7.32935 9.83298C7.68723 10.3114 8.14381 10.7073 8.66814 10.9938C9.19247 11.2802 9.77227 11.4506 10.3682 11.4933C10.9642 11.5359 11.5623 11.45 12.1221 11.2411C12.6819 11.0323 13.1903 10.7055 13.6127 10.283L16.1127 7.78298C16.8717 6.99714 17.2917 5.94463 17.2822 4.85214C17.2727 3.75965 16.8345 2.7146 16.0619 1.94207C15.2894 1.16953 14.2443 0.731331 13.1519 0.721837C12.0594 0.712344 11.0069 1.13232 10.221 1.89131L8.78768 3.31631M10.6627 8.16631C10.3048 7.68787 9.84822 7.29199 9.32389 7.00553C8.79956 6.71907 8.21976 6.54872 7.62381 6.50603C7.02785 6.46335 6.42969 6.54934 5.86989 6.75816C5.3101 6.96698 4.80175 7.29375 4.37935 7.71631L1.87935 10.2163C1.12036 11.0022 0.700381 12.0547 0.709874 13.1472C0.719368 14.2396 1.15757 15.2847 1.93011 16.0572C2.70264 16.8298 3.74769 17.268 4.84018 17.2775C5.93266 17.2869 6.98517 16.867 7.77102 16.108L9.19602 14.683" stroke="#1C2FBA" stroke-linecap="round" stroke-linejoin="round"/>
</svg>
