<svg width="18" height="16" viewBox="0 0 18 16" fill="none" xmlns="http://www.w3.org/2000/svg">
<path d="M12.7495 14.75V13.25C12.7495 12.4543 12.4334 11.6913 11.8708 11.1287C11.3082 10.5661 10.5452 10.25 9.74951 10.25H3.74951C2.95386 10.25 2.1908 10.5661 1.62819 11.1287C1.06558 11.6913 0.749512 12.4543 0.749512 13.25V14.75M17.2495 14.75V13.25C17.249 12.5853 17.0278 11.9396 16.6205 11.4142C16.2133 10.8889 15.6431 10.5137 14.9995 10.3475M11.9995 1.3475C12.6448 1.51273 13.2168 1.88803 13.6252 2.41423C14.0337 2.94044 14.2554 3.58762 14.2554 4.25375C14.2554 4.91988 14.0337 5.56706 13.6252 6.09327C13.2168 6.61947 12.6448 6.99477 11.9995 7.16M9.74951 4.25C9.74951 5.90685 8.40637 7.25 6.74951 7.25C5.09266 7.25 3.74951 5.90685 3.74951 4.25C3.74951 2.59315 5.09266 1.25 6.74951 1.25C8.40637 1.25 9.74951 2.59315 9.74951 4.25Z" stroke="#1C2FBA" stroke-width="1.25" stroke-linecap="round" stroke-linejoin="round"/>
</svg>
