<svg width="16" height="16" viewBox="0 0 16 16" fill="none" xmlns="http://www.w3.org/2000/svg">
<path d="M8.99355 7.0064L3.08043 12.9195M3.71858 8.62812L0.82224 7.94397C0.503584 7.86869 0.39151 7.47309 0.622348 7.24142L2.9257 4.93806C3.08043 4.78333 3.29036 4.69468 3.51032 4.69301L6.10725 4.67043M9.37828 1.69881C11.3111 3.01693 12.983 4.68883 14.3011 6.62167M7.371 12.2814L8.05515 15.1777C8.13042 15.4964 8.52602 15.6084 8.75769 15.3776L11.061 13.0742C11.2158 12.9195 11.3044 12.7096 11.3061 12.4896L11.3287 9.8927M14.7971 5.26257L15.4729 2.01078C15.6569 1.1259 14.874 0.343059 13.9892 0.52706L10.7374 1.20285C9.77973 1.4019 8.90155 1.87612 8.21071 2.5678L5.5427 5.23497C4.52484 6.25283 3.86244 7.57262 3.65334 8.99695L3.64414 9.05801C3.512 9.96714 3.81644 10.8846 4.46546 11.5345C5.11448 12.1835 6.03281 12.488 6.94194 12.355L7.003 12.3458C8.42733 12.1375 9.74712 11.4743 10.765 10.4564L13.4322 7.78924C14.1238 7.0984 14.598 6.22021 14.7971 5.26257Z" stroke="#1C2FBA" stroke-linecap="round" stroke-linejoin="round"/>
</svg>
