<svg width="22" height="22" viewBox="0 0 22 22" fill="none" xmlns="http://www.w3.org/2000/svg">
<path d="M8.99999 12C9.42944 12.5741 9.97734 13.0491 10.6065 13.3929C11.2357 13.7367 11.9315 13.9411 12.6466 13.9923C13.3618 14.0435 14.0796 13.9403 14.7513 13.6897C15.4231 13.4392 16.0331 13.047 16.54 12.54L19.54 9.53997C20.4508 8.59695 20.9547 7.33394 20.9434 6.02296C20.932 4.71198 20.4061 3.45791 19.4791 2.53087C18.552 1.60383 17.298 1.07799 15.987 1.0666C14.676 1.0552 13.413 1.55918 12.47 2.46997L10.75 4.17997M13 9.99996C12.5705 9.42584 12.0226 8.95078 11.3934 8.60703C10.7642 8.26327 10.0685 8.05885 9.35334 8.00763C8.63819 7.95641 7.9204 8.0596 7.24864 8.31018C6.57688 8.56077 5.96687 8.9529 5.45999 9.45996L2.45999 12.46C1.5492 13.403 1.04522 14.666 1.05662 15.977C1.06801 17.288 1.59385 18.542 2.52089 19.4691C3.44793 20.3961 4.702 20.9219 6.01298 20.9333C7.32396 20.9447 8.58697 20.4408 9.52999 19.53L11.24 17.82" stroke="#1C2FBA" stroke-width="2" stroke-linecap="round" stroke-linejoin="round"/>
</svg>
